<?xml version="1.0" encoding="UTF-8" standalone="no"?>
<!DOCTYPE svg PUBLIC "-//W3C//DTD SVG 1.1//EN"
 "http://www.w3.org/Graphics/SVG/1.1/DTD/svg11.dtd">
<!-- Generated by graphviz version 2.40.1 (20161225.0304)
 -->
<!-- Title: G Pages: 1 -->
<svg width="397pt" height="271pt"
 viewBox="0.00 0.00 396.96 271.00" xmlns="http://www.w3.org/2000/svg" xmlns:xlink="http://www.w3.org/1999/xlink">
<g id="graph0" class="graph" transform="scale(1 1) rotate(0) translate(4 267)">
<title>G</title>
<polygon fill="#ffffff" stroke="transparent" points="-4,4 -4,-267 392.9643,-267 392.9643,4 -4,4"/>
<g id="clust1" class="cluster">
<title>cluster_0</title>
<polygon fill="none" stroke="#000000" points="8,-39 8,-224 184.4821,-224 184.4821,-39 8,-39"/>
<text text-anchor="middle" x="96.2411" y="-207.4" font-family="Times,serif" font-size="14.00" fill="#000000">RDMA_Session</text>
</g>
<g id="clust2" class="cluster">
<title>cluster_1</title>
<polygon fill="none" stroke="#000000" points="204.4821,-178 204.4821,-255 380.9643,-255 380.9643,-178 204.4821,-178"/>
<text text-anchor="middle" x="292.7232" y="-238.4" font-family="Times,serif" font-size="14.00" fill="#000000">RDMA_Session</text>
</g>
<g id="clust3" class="cluster">
<title>cluster_2</title>
<polygon fill="none" stroke="#000000" points="204.4821,-93 204.4821,-170 380.9643,-170 380.9643,-93 204.4821,-93"/>
<text text-anchor="middle" x="292.7232" y="-153.4" font-family="Times,serif" font-size="14.00" fill="#000000">RDMA_Session</text>
</g>
<g id="clust4" class="cluster">
<title>cluster_3</title>
<polygon fill="none" stroke="#000000" points="204.4821,-8 204.4821,-85 380.9643,-85 380.9643,-8 204.4821,-8"/>
<text text-anchor="middle" x="292.7232" y="-68.4" font-family="Times,serif" font-size="14.00" fill="#000000">RDMA_Session</text>
</g>
<!-- ep0 -->
<g id="node1" class="node">
<title>ep0</title>
<ellipse fill="none" stroke="#000000" cx="96.2411" cy="-173" rx="80.4829" ry="18"/>
<text text-anchor="middle" x="96.2411" y="-168.8" font-family="Times,serif" font-size="14.00" fill="#000000">RDMA_Endpoint</text>
</g>
<!-- ep3 -->
<g id="node4" class="node">
<title>ep3</title>
<ellipse fill="none" stroke="#000000" cx="292.7232" cy="-204" rx="80.4829" ry="18"/>
<text text-anchor="middle" x="292.7232" y="-199.8" font-family="Times,serif" font-size="14.00" fill="#000000">RDMA_Endpoint</text>
</g>
<!-- ep0&#45;&gt;ep3 -->
<g id="edge1" class="edge">
<title>ep0&#45;&gt;ep3</title>
<path fill="none" stroke="#000000" d="M171.9175,-184.9399C186.6989,-187.272 202.2007,-189.7178 216.9841,-192.0502"/>
<polygon fill="#000000" stroke="#000000" points="172.3633,-181.467 161.9399,-183.3657 171.2723,-188.3814 172.3633,-181.467"/>
<polygon fill="#000000" stroke="#000000" points="216.6629,-195.5428 227.0862,-193.6441 217.7539,-188.6283 216.6629,-195.5428"/>
</g>
<!-- ep1 -->
<g id="node2" class="node">
<title>ep1</title>
<ellipse fill="none" stroke="#000000" cx="96.2411" cy="-119" rx="80.4829" ry="18"/>
<text text-anchor="middle" x="96.2411" y="-114.8" font-family="Times,serif" font-size="14.00" fill="#000000">RDMA_Endpoint</text>
</g>
<!-- ep4 -->
<g id="node5" class="node">
<title>ep4</title>
<ellipse fill="none" stroke="#000000" cx="292.7232" cy="-119" rx="80.4829" ry="18"/>
<text text-anchor="middle" x="292.7232" y="-114.8" font-family="Times,serif" font-size="14.00" fill="#000000">RDMA_Endpoint</text>
</g>
<!-- ep1&#45;&gt;ep4 -->
<g id="edge2" class="edge">
<title>ep1&#45;&gt;ep4</title>
<path fill="none" stroke="#000000" d="M186.9971,-119C192.0237,-119 197.0765,-119 202.1026,-119"/>
<polygon fill="#000000" stroke="#000000" points="186.7248,-115.5001 176.7248,-119 186.7248,-122.5001 186.7248,-115.5001"/>
<polygon fill="#000000" stroke="#000000" points="202.3647,-122.5001 212.3647,-119 202.3646,-115.5001 202.3647,-122.5001"/>
</g>
<!-- ep2 -->
<g id="node3" class="node">
<title>ep2</title>
<ellipse fill="none" stroke="#000000" cx="96.2411" cy="-65" rx="80.4829" ry="18"/>
<text text-anchor="middle" x="96.2411" y="-60.8" font-family="Times,serif" font-size="14.00" fill="#000000">RDMA_Endpoint</text>
</g>
<!-- ep5 -->
<g id="node6" class="node">
<title>ep5</title>
<ellipse fill="none" stroke="#000000" cx="292.7232" cy="-34" rx="80.4829" ry="18"/>
<text text-anchor="middle" x="292.7232" y="-29.8" font-family="Times,serif" font-size="14.00" fill="#000000">RDMA_Endpoint</text>
</g>
<!-- ep2&#45;&gt;ep5 -->
<g id="edge3" class="edge">
<title>ep2&#45;&gt;ep5</title>
<path fill="none" stroke="#000000" d="M171.9175,-53.0601C186.6989,-50.728 202.2007,-48.2822 216.9841,-45.9498"/>
<polygon fill="#000000" stroke="#000000" points="171.2723,-49.6186 161.9399,-54.6343 172.3633,-56.533 171.2723,-49.6186"/>
<polygon fill="#000000" stroke="#000000" points="217.7539,-49.3717 227.0862,-44.3559 216.6629,-42.4572 217.7539,-49.3717"/>
</g>
</g>
</svg>
